<mxfile host="app.diagrams.net" modified="2023-04-14T20:57:03.950Z" agent="Mozilla/5.0 (Windows NT 10.0; Win64; x64) AppleWebKit/537.36 (KHTML, like Gecko) Chrome/112.0.0.0 Safari/537.36" etag="xhjvTkOXoMDx8UoGisBo" version="21.1.7" type="device">
  <diagram name="Page-1" id="3_yy21nKoGkpVeBK_KUc">
    <mxGraphModel dx="3049" dy="687" grid="1" gridSize="10" guides="1" tooltips="1" connect="1" arrows="1" fold="1" page="1" pageScale="1" pageWidth="850" pageHeight="1100" math="1" shadow="0">
      <root>
        <mxCell id="0" />
        <mxCell id="1" parent="0" />
        <mxCell id="801SNA5SVM6vxPM0RcMN-2" value="" style="rounded=1;whiteSpace=wrap;html=1;strokeWidth=2;strokeColor=#0080F0;" parent="1" vertex="1">
          <mxGeometry x="200" y="1683.5" width="2920" height="636.5" as="geometry" />
        </mxCell>
        <mxCell id="_ibo64p8Jv85Mo9t8Pvp-176" value="&lt;font style=&quot;font-size: 20px;&quot;&gt;Service Request&lt;/font&gt;" style="rounded=1;whiteSpace=wrap;html=1;fillColor=#f8cecc;strokeColor=#b85450;" parent="1" vertex="1">
          <mxGeometry x="240" y="1879" width="120" height="120" as="geometry" />
        </mxCell>
        <mxCell id="_ibo64p8Jv85Mo9t8Pvp-177" value="&lt;font style=&quot;font-size: 20px;&quot;&gt;Slice 1&lt;/font&gt;" style="rounded=1;whiteSpace=wrap;html=1;fillColor=#f8cecc;strokeColor=#b85450;" parent="1" vertex="1">
          <mxGeometry x="480" y="1836.5" width="120" height="40" as="geometry" />
        </mxCell>
        <mxCell id="_ibo64p8Jv85Mo9t8Pvp-178" value="Slice 2" style="rounded=1;whiteSpace=wrap;html=1;fillColor=#f8cecc;strokeColor=#b85450;fontSize=20;" parent="1" vertex="1">
          <mxGeometry x="480" y="1919" width="120" height="40" as="geometry" />
        </mxCell>
        <mxCell id="_ibo64p8Jv85Mo9t8Pvp-179" value="Slice N" style="rounded=1;whiteSpace=wrap;html=1;fillColor=#f8cecc;strokeColor=#b85450;fontSize=20;" parent="1" vertex="1">
          <mxGeometry x="480" y="2000" width="120" height="40" as="geometry" />
        </mxCell>
        <mxCell id="_ibo64p8Jv85Mo9t8Pvp-180" value="&lt;font style=&quot;font-size: 20px;&quot;&gt;1&lt;/font&gt;" style="endArrow=classic;html=1;rounded=0;entryX=0;entryY=0.5;entryDx=0;entryDy=0;exitX=1;exitY=0.5;exitDx=0;exitDy=0;" parent="1" source="_ibo64p8Jv85Mo9t8Pvp-176" target="_ibo64p8Jv85Mo9t8Pvp-177" edge="1">
          <mxGeometry width="50" height="50" relative="1" as="geometry">
            <mxPoint x="1380" y="2331.75" as="sourcePoint" />
            <mxPoint x="1520" y="2381.75" as="targetPoint" />
          </mxGeometry>
        </mxCell>
        <mxCell id="_ibo64p8Jv85Mo9t8Pvp-182" value="&lt;font style=&quot;font-size: 20px;&quot;&gt;1&lt;/font&gt;" style="endArrow=classic;html=1;rounded=0;entryX=0;entryY=0.5;entryDx=0;entryDy=0;exitX=1;exitY=0.5;exitDx=0;exitDy=0;" parent="1" source="_ibo64p8Jv85Mo9t8Pvp-176" target="_ibo64p8Jv85Mo9t8Pvp-178" edge="1">
          <mxGeometry width="50" height="50" relative="1" as="geometry">
            <mxPoint x="1650" y="2231.75" as="sourcePoint" />
            <mxPoint x="1750" y="2381.75" as="targetPoint" />
          </mxGeometry>
        </mxCell>
        <mxCell id="_ibo64p8Jv85Mo9t8Pvp-183" value="&lt;font style=&quot;font-size: 20px;&quot;&gt;1&lt;/font&gt;" style="endArrow=classic;html=1;rounded=0;exitX=1;exitY=0.5;exitDx=0;exitDy=0;entryX=0;entryY=0.5;entryDx=0;entryDy=0;" parent="1" source="_ibo64p8Jv85Mo9t8Pvp-176" target="_ibo64p8Jv85Mo9t8Pvp-179" edge="1">
          <mxGeometry width="50" height="50" relative="1" as="geometry">
            <mxPoint x="1670" y="2361.75" as="sourcePoint" />
            <mxPoint x="1720" y="2311.75" as="targetPoint" />
          </mxGeometry>
        </mxCell>
        <mxCell id="_ibo64p8Jv85Mo9t8Pvp-184" value="&lt;font style=&quot;font-size: 20px;&quot;&gt;&lt;b&gt;Environment&lt;/b&gt;&lt;/font&gt;" style="rounded=1;whiteSpace=wrap;html=1;fillColor=#fff2cc;strokeColor=#d6b656;verticalAlign=middle;" parent="1" vertex="1">
          <mxGeometry x="720" y="1801.5" width="360" height="278.5" as="geometry" />
        </mxCell>
        <mxCell id="_ibo64p8Jv85Mo9t8Pvp-185" value="&lt;font style=&quot;font-size: 20px;&quot;&gt;&lt;b&gt;State&lt;/b&gt;&lt;/font&gt;" style="rounded=1;whiteSpace=wrap;html=1;fillColor=#dae8fc;strokeColor=#6c8ebf;verticalAlign=top;" parent="1" vertex="1">
          <mxGeometry x="1200" y="1800" width="360" height="280" as="geometry" />
        </mxCell>
        <mxCell id="_ibo64p8Jv85Mo9t8Pvp-187" value="&lt;b&gt;DRL Agent&lt;/b&gt;" style="rounded=1;whiteSpace=wrap;html=1;fontSize=20;verticalAlign=top;" parent="1" vertex="1">
          <mxGeometry x="1680" y="1800" width="365" height="280" as="geometry" />
        </mxCell>
        <mxCell id="_ibo64p8Jv85Mo9t8Pvp-188" value="&lt;font style=&quot;font-size: 20px;&quot;&gt;4&lt;/font&gt;" style="endArrow=classic;html=1;rounded=0;exitX=1;exitY=0.5;exitDx=0;exitDy=0;entryX=0;entryY=0.5;entryDx=0;entryDy=0;" parent="1" source="_ibo64p8Jv85Mo9t8Pvp-185" target="_ibo64p8Jv85Mo9t8Pvp-187" edge="1">
          <mxGeometry width="50" height="50" relative="1" as="geometry">
            <mxPoint x="880" y="2330" as="sourcePoint" />
            <mxPoint x="930" y="2280" as="targetPoint" />
          </mxGeometry>
        </mxCell>
        <mxCell id="_ibo64p8Jv85Mo9t8Pvp-189" value="&lt;font style=&quot;font-size: 20px;&quot;&gt;&lt;b&gt;Action&lt;/b&gt;&lt;/font&gt;" style="rounded=1;whiteSpace=wrap;html=1;fillColor=#ffe6cc;strokeColor=#d79b00;verticalAlign=top;" parent="1" vertex="1">
          <mxGeometry x="2160" y="1800" width="360" height="280" as="geometry" />
        </mxCell>
        <mxCell id="_ibo64p8Jv85Mo9t8Pvp-190" value="&lt;font style=&quot;font-size: 20px;&quot;&gt;5&lt;/font&gt;" style="endArrow=classic;html=1;rounded=0;exitX=1;exitY=0.5;exitDx=0;exitDy=0;entryX=0;entryY=0.5;entryDx=0;entryDy=0;" parent="1" source="_ibo64p8Jv85Mo9t8Pvp-187" target="_ibo64p8Jv85Mo9t8Pvp-189" edge="1">
          <mxGeometry width="50" height="50" relative="1" as="geometry">
            <mxPoint x="1080" y="2540" as="sourcePoint" />
            <mxPoint x="1130" y="2490" as="targetPoint" />
          </mxGeometry>
        </mxCell>
        <mxCell id="_ibo64p8Jv85Mo9t8Pvp-195" value="&lt;span style=&quot;font-size: 20px;&quot;&gt;Merged Result&lt;/span&gt;" style="rounded=1;whiteSpace=wrap;html=1;fillColor=#e1d5e7;strokeColor=#9673a6;" parent="1" vertex="1">
          <mxGeometry x="2920" y="1881.4999999999998" width="120" height="120" as="geometry" />
        </mxCell>
        <mxCell id="_ibo64p8Jv85Mo9t8Pvp-196" value="&lt;font style=&quot;font-size: 20px;&quot;&gt;Result 1&lt;/font&gt;" style="rounded=1;whiteSpace=wrap;html=1;fillColor=#e1d5e7;strokeColor=#9673a6;" parent="1" vertex="1">
          <mxGeometry x="2680" y="1838.9999999999998" width="120" height="40" as="geometry" />
        </mxCell>
        <mxCell id="_ibo64p8Jv85Mo9t8Pvp-197" value="&lt;font style=&quot;font-size: 20px;&quot;&gt;Result 2&lt;/font&gt;" style="rounded=1;whiteSpace=wrap;html=1;fillColor=#e1d5e7;strokeColor=#9673a6;" parent="1" vertex="1">
          <mxGeometry x="2680" y="1921.4999999999998" width="120" height="40" as="geometry" />
        </mxCell>
        <mxCell id="_ibo64p8Jv85Mo9t8Pvp-198" value="&lt;font style=&quot;font-size: 20px;&quot;&gt;Result N&lt;/font&gt;" style="rounded=1;whiteSpace=wrap;html=1;fillColor=#e1d5e7;strokeColor=#9673a6;" parent="1" vertex="1">
          <mxGeometry x="2680" y="1999.9999999999998" width="120" height="40" as="geometry" />
        </mxCell>
        <mxCell id="_ibo64p8Jv85Mo9t8Pvp-201" value="&lt;font size=&quot;1&quot; style=&quot;&quot;&gt;&lt;b style=&quot;font-size: 30px;&quot;&gt;...&lt;/b&gt;&lt;/font&gt;" style="text;html=1;strokeColor=none;fillColor=none;align=center;verticalAlign=middle;whiteSpace=wrap;rounded=0;" parent="1" vertex="1">
          <mxGeometry x="510" y="1964" width="60" height="30" as="geometry" />
        </mxCell>
        <mxCell id="_ibo64p8Jv85Mo9t8Pvp-202" value="&lt;font size=&quot;1&quot; style=&quot;&quot;&gt;&lt;b style=&quot;font-size: 30px;&quot;&gt;...&lt;/b&gt;&lt;/font&gt;" style="text;html=1;strokeColor=none;fillColor=none;align=center;verticalAlign=middle;whiteSpace=wrap;rounded=0;" parent="1" vertex="1">
          <mxGeometry x="1690" y="2240" width="60" height="30" as="geometry" />
        </mxCell>
        <mxCell id="_ibo64p8Jv85Mo9t8Pvp-203" value="&lt;font style=&quot;font-size: 20px;&quot;&gt;9. If slice 1 processed&lt;/font&gt;" style="endArrow=classic;html=1;rounded=0;exitX=0.555;exitY=1;exitDx=0;exitDy=0;exitPerimeter=0;entryX=0;entryY=0.5;entryDx=0;entryDy=0;" parent="1" source="_ibo64p8Jv85Mo9t8Pvp-184" target="_ibo64p8Jv85Mo9t8Pvp-196" edge="1">
          <mxGeometry x="-0.1625" width="50" height="50" relative="1" as="geometry">
            <mxPoint x="840" y="2090" as="sourcePoint" />
            <mxPoint x="2640" y="1840" as="targetPoint" />
            <Array as="points">
              <mxPoint x="920" y="2200" />
              <mxPoint x="2560" y="2200" />
              <mxPoint x="2560" y="2040" />
              <mxPoint x="2560" y="1859" />
            </Array>
            <mxPoint as="offset" />
          </mxGeometry>
        </mxCell>
        <mxCell id="_ibo64p8Jv85Mo9t8Pvp-204" value="" style="endArrow=classic;html=1;rounded=0;" parent="1" edge="1">
          <mxGeometry width="50" height="50" relative="1" as="geometry">
            <mxPoint x="880" y="2080" as="sourcePoint" />
            <mxPoint x="2680" y="1942" as="targetPoint" />
            <Array as="points">
              <mxPoint x="880" y="2240" />
              <mxPoint x="2600" y="2240" />
              <mxPoint x="2600" y="1942" />
            </Array>
          </mxGeometry>
        </mxCell>
        <mxCell id="_ibo64p8Jv85Mo9t8Pvp-205" value="&lt;font style=&quot;font-size: 20px;&quot;&gt;9. If slice 2 processed&lt;/font&gt;" style="edgeLabel;html=1;align=center;verticalAlign=middle;resizable=0;points=[];" parent="_ibo64p8Jv85Mo9t8Pvp-204" vertex="1" connectable="0">
          <mxGeometry x="0.2254" y="3" relative="1" as="geometry">
            <mxPoint x="-374" y="3" as="offset" />
          </mxGeometry>
        </mxCell>
        <mxCell id="_ibo64p8Jv85Mo9t8Pvp-206" value="&lt;font style=&quot;font-size: 20px;&quot;&gt;9. If slice N processed&lt;/font&gt;" style="endArrow=classic;html=1;rounded=0;entryX=0;entryY=0.5;entryDx=0;entryDy=0;exitX=0.329;exitY=1.004;exitDx=0;exitDy=0;exitPerimeter=0;" parent="1" source="_ibo64p8Jv85Mo9t8Pvp-184" target="_ibo64p8Jv85Mo9t8Pvp-198" edge="1">
          <mxGeometry x="-0.0527" width="50" height="50" relative="1" as="geometry">
            <mxPoint x="800" y="2340" as="sourcePoint" />
            <mxPoint x="3230" y="2190.43" as="targetPoint" />
            <Array as="points">
              <mxPoint x="840" y="2280" />
              <mxPoint x="2000" y="2280" />
              <mxPoint x="2640" y="2280" />
              <mxPoint x="2640" y="2020" />
            </Array>
            <mxPoint as="offset" />
          </mxGeometry>
        </mxCell>
        <mxCell id="_ibo64p8Jv85Mo9t8Pvp-207" value="&lt;ul style=&quot;font-size: 20px;&quot;&gt;&lt;li&gt;Is slice 1 assigned to Fog&lt;/li&gt;&lt;/ul&gt;" style="text;html=1;strokeColor=none;fillColor=none;align=left;verticalAlign=middle;whiteSpace=wrap;rounded=0;" parent="1" vertex="1">
          <mxGeometry x="1210" y="1860" width="340" height="30" as="geometry" />
        </mxCell>
        <mxCell id="_ibo64p8Jv85Mo9t8Pvp-208" value="&lt;ul style=&quot;font-size: 20px;&quot;&gt;&lt;li&gt;Is slice 1 assigned to Cloud&lt;/li&gt;&lt;/ul&gt;" style="text;html=1;strokeColor=none;fillColor=none;align=left;verticalAlign=middle;whiteSpace=wrap;rounded=0;" parent="1" vertex="1">
          <mxGeometry x="1210" y="1889" width="340" height="30" as="geometry" />
        </mxCell>
        <mxCell id="_ibo64p8Jv85Mo9t8Pvp-209" value="&lt;ul style=&quot;font-size: 20px;&quot;&gt;&lt;li&gt;Is slice 2 assigned to Fog&lt;/li&gt;&lt;/ul&gt;" style="text;html=1;strokeColor=none;fillColor=none;align=left;verticalAlign=middle;whiteSpace=wrap;rounded=0;" parent="1" vertex="1">
          <mxGeometry x="1210" y="1916" width="340" height="30" as="geometry" />
        </mxCell>
        <mxCell id="_ibo64p8Jv85Mo9t8Pvp-210" value="&lt;ul style=&quot;font-size: 20px;&quot;&gt;&lt;li&gt;Is slice 2 assigned to Cloud&lt;/li&gt;&lt;/ul&gt;" style="text;html=1;strokeColor=none;fillColor=none;align=left;verticalAlign=middle;whiteSpace=wrap;rounded=0;" parent="1" vertex="1">
          <mxGeometry x="1210" y="1945" width="340" height="30" as="geometry" />
        </mxCell>
        <mxCell id="_ibo64p8Jv85Mo9t8Pvp-211" value="&lt;ul style=&quot;font-size: 20px;&quot;&gt;&lt;li&gt;Is slice N assigned to Fog&lt;/li&gt;&lt;/ul&gt;" style="text;html=1;strokeColor=none;fillColor=none;align=left;verticalAlign=middle;whiteSpace=wrap;rounded=0;" parent="1" vertex="1">
          <mxGeometry x="1210" y="2000" width="340" height="30" as="geometry" />
        </mxCell>
        <mxCell id="_ibo64p8Jv85Mo9t8Pvp-212" value="&lt;ul style=&quot;font-size: 20px;&quot;&gt;&lt;li&gt;&lt;b&gt;...&lt;/b&gt;&lt;/li&gt;&lt;/ul&gt;" style="text;html=1;strokeColor=none;fillColor=none;align=left;verticalAlign=middle;whiteSpace=wrap;rounded=0;" parent="1" vertex="1">
          <mxGeometry x="1210" y="1970" width="340" height="30" as="geometry" />
        </mxCell>
        <mxCell id="_ibo64p8Jv85Mo9t8Pvp-213" value="&lt;ul style=&quot;font-size: 20px;&quot;&gt;&lt;li&gt;Is slice N assigned to Cloud&lt;/li&gt;&lt;/ul&gt;" style="text;html=1;strokeColor=none;fillColor=none;align=left;verticalAlign=middle;whiteSpace=wrap;rounded=0;" parent="1" vertex="1">
          <mxGeometry x="1210" y="2030" width="340" height="30" as="geometry" />
        </mxCell>
        <mxCell id="_ibo64p8Jv85Mo9t8Pvp-214" value="&lt;ul style=&quot;font-size: 20px;&quot;&gt;&lt;li&gt;Assign slice 1 to Fog&lt;/li&gt;&lt;/ul&gt;" style="text;html=1;strokeColor=none;fillColor=none;align=left;verticalAlign=middle;whiteSpace=wrap;rounded=0;" parent="1" vertex="1">
          <mxGeometry x="2170" y="1874" width="340" height="30" as="geometry" />
        </mxCell>
        <mxCell id="_ibo64p8Jv85Mo9t8Pvp-215" value="&lt;ul style=&quot;font-size: 20px;&quot;&gt;&lt;li&gt;&lt;b&gt;...&lt;/b&gt;&lt;/li&gt;&lt;/ul&gt;" style="text;html=1;strokeColor=none;fillColor=none;align=left;verticalAlign=middle;whiteSpace=wrap;rounded=0;" parent="1" vertex="1">
          <mxGeometry x="2170" y="1934" width="340" height="30" as="geometry" />
        </mxCell>
        <mxCell id="_ibo64p8Jv85Mo9t8Pvp-216" value="&lt;ul style=&quot;font-size: 20px;&quot;&gt;&lt;li&gt;Assign slice N&amp;nbsp; to Fog&lt;/li&gt;&lt;/ul&gt;" style="text;html=1;strokeColor=none;fillColor=none;align=left;verticalAlign=middle;whiteSpace=wrap;rounded=0;" parent="1" vertex="1">
          <mxGeometry x="2170" y="1970" width="340" height="30" as="geometry" />
        </mxCell>
        <mxCell id="_ibo64p8Jv85Mo9t8Pvp-217" value="&lt;ul style=&quot;font-size: 20px;&quot;&gt;&lt;li&gt;Assign slice 2 to Cloud&lt;/li&gt;&lt;/ul&gt;" style="text;html=1;strokeColor=none;fillColor=none;align=left;verticalAlign=middle;whiteSpace=wrap;rounded=0;" parent="1" vertex="1">
          <mxGeometry x="2170" y="1904" width="340" height="30" as="geometry" />
        </mxCell>
        <mxCell id="_ibo64p8Jv85Mo9t8Pvp-218" value="" style="ellipse;whiteSpace=wrap;html=1;aspect=fixed;fillColor=#d5e8d4;strokeColor=#82b366;" parent="1" vertex="1">
          <mxGeometry x="1840" y="1831.5" width="55" height="55" as="geometry" />
        </mxCell>
        <mxCell id="_ibo64p8Jv85Mo9t8Pvp-219" value="" style="ellipse;whiteSpace=wrap;html=1;aspect=fixed;fillColor=#d5e8d4;strokeColor=#82b366;" parent="1" vertex="1">
          <mxGeometry x="1840" y="1921.5" width="55" height="55" as="geometry" />
        </mxCell>
        <mxCell id="_ibo64p8Jv85Mo9t8Pvp-220" value="" style="ellipse;whiteSpace=wrap;html=1;aspect=fixed;fillColor=#d5e8d4;strokeColor=#82b366;" parent="1" vertex="1">
          <mxGeometry x="1840" y="2011.5" width="55" height="55" as="geometry" />
        </mxCell>
        <mxCell id="_ibo64p8Jv85Mo9t8Pvp-221" value="" style="ellipse;whiteSpace=wrap;html=1;aspect=fixed;fillColor=#ffe6cc;strokeColor=#d79b00;" parent="1" vertex="1">
          <mxGeometry x="1730" y="1876.5" width="55" height="55" as="geometry" />
        </mxCell>
        <mxCell id="_ibo64p8Jv85Mo9t8Pvp-222" value="" style="ellipse;whiteSpace=wrap;html=1;aspect=fixed;fillColor=#ffe6cc;strokeColor=#d79b00;" parent="1" vertex="1">
          <mxGeometry x="1730" y="1966.5" width="55" height="55" as="geometry" />
        </mxCell>
        <mxCell id="_ibo64p8Jv85Mo9t8Pvp-223" value="" style="ellipse;whiteSpace=wrap;html=1;aspect=fixed;fillColor=#f8cecc;strokeColor=#b85450;" parent="1" vertex="1">
          <mxGeometry x="1940" y="1921.5" width="55" height="55" as="geometry" />
        </mxCell>
        <mxCell id="_ibo64p8Jv85Mo9t8Pvp-224" value="" style="endArrow=classic;html=1;rounded=0;exitX=1;exitY=0.5;exitDx=0;exitDy=0;entryX=0;entryY=0.5;entryDx=0;entryDy=0;" parent="1" source="_ibo64p8Jv85Mo9t8Pvp-221" target="_ibo64p8Jv85Mo9t8Pvp-218" edge="1">
          <mxGeometry width="50" height="50" relative="1" as="geometry">
            <mxPoint x="1440" y="2061.5" as="sourcePoint" />
            <mxPoint x="1490" y="2011.5" as="targetPoint" />
          </mxGeometry>
        </mxCell>
        <mxCell id="_ibo64p8Jv85Mo9t8Pvp-225" value="" style="endArrow=classic;html=1;rounded=0;exitX=1;exitY=0.5;exitDx=0;exitDy=0;entryX=0;entryY=0.5;entryDx=0;entryDy=0;" parent="1" source="_ibo64p8Jv85Mo9t8Pvp-221" target="_ibo64p8Jv85Mo9t8Pvp-219" edge="1">
          <mxGeometry width="50" height="50" relative="1" as="geometry">
            <mxPoint x="1690" y="2231.5" as="sourcePoint" />
            <mxPoint x="1740" y="2181.5" as="targetPoint" />
          </mxGeometry>
        </mxCell>
        <mxCell id="_ibo64p8Jv85Mo9t8Pvp-226" value="" style="endArrow=classic;html=1;rounded=0;exitX=1;exitY=0.5;exitDx=0;exitDy=0;entryX=0;entryY=0.5;entryDx=0;entryDy=0;" parent="1" source="_ibo64p8Jv85Mo9t8Pvp-221" target="_ibo64p8Jv85Mo9t8Pvp-220" edge="1">
          <mxGeometry width="50" height="50" relative="1" as="geometry">
            <mxPoint x="1690" y="2191.5" as="sourcePoint" />
            <mxPoint x="1740" y="2141.5" as="targetPoint" />
          </mxGeometry>
        </mxCell>
        <mxCell id="_ibo64p8Jv85Mo9t8Pvp-227" value="" style="endArrow=classic;html=1;rounded=0;exitX=1;exitY=0.5;exitDx=0;exitDy=0;entryX=0.004;entryY=0.629;entryDx=0;entryDy=0;entryPerimeter=0;" parent="1" source="_ibo64p8Jv85Mo9t8Pvp-222" target="_ibo64p8Jv85Mo9t8Pvp-218" edge="1">
          <mxGeometry width="50" height="50" relative="1" as="geometry">
            <mxPoint x="1710" y="2191.5" as="sourcePoint" />
            <mxPoint x="1760" y="2141.5" as="targetPoint" />
          </mxGeometry>
        </mxCell>
        <mxCell id="_ibo64p8Jv85Mo9t8Pvp-228" value="" style="endArrow=classic;html=1;rounded=0;exitX=1;exitY=0.5;exitDx=0;exitDy=0;entryX=0;entryY=0.5;entryDx=0;entryDy=0;" parent="1" source="_ibo64p8Jv85Mo9t8Pvp-222" target="_ibo64p8Jv85Mo9t8Pvp-219" edge="1">
          <mxGeometry width="50" height="50" relative="1" as="geometry">
            <mxPoint x="1700" y="2151.5" as="sourcePoint" />
            <mxPoint x="1750" y="2101.5" as="targetPoint" />
          </mxGeometry>
        </mxCell>
        <mxCell id="_ibo64p8Jv85Mo9t8Pvp-229" value="" style="endArrow=classic;html=1;rounded=0;exitX=1;exitY=0.5;exitDx=0;exitDy=0;entryX=0;entryY=0.5;entryDx=0;entryDy=0;" parent="1" source="_ibo64p8Jv85Mo9t8Pvp-222" target="_ibo64p8Jv85Mo9t8Pvp-220" edge="1">
          <mxGeometry width="50" height="50" relative="1" as="geometry">
            <mxPoint x="1770" y="2211.5" as="sourcePoint" />
            <mxPoint x="1820" y="2161.5" as="targetPoint" />
          </mxGeometry>
        </mxCell>
        <mxCell id="_ibo64p8Jv85Mo9t8Pvp-230" value="" style="endArrow=classic;html=1;rounded=0;exitX=1;exitY=0.5;exitDx=0;exitDy=0;entryX=0;entryY=0.5;entryDx=0;entryDy=0;" parent="1" source="_ibo64p8Jv85Mo9t8Pvp-218" target="_ibo64p8Jv85Mo9t8Pvp-223" edge="1">
          <mxGeometry width="50" height="50" relative="1" as="geometry">
            <mxPoint x="1970" y="2091.5" as="sourcePoint" />
            <mxPoint x="2020" y="2041.5" as="targetPoint" />
          </mxGeometry>
        </mxCell>
        <mxCell id="_ibo64p8Jv85Mo9t8Pvp-231" value="" style="endArrow=classic;html=1;rounded=0;exitX=1;exitY=0.5;exitDx=0;exitDy=0;entryX=0;entryY=0.5;entryDx=0;entryDy=0;" parent="1" source="_ibo64p8Jv85Mo9t8Pvp-219" target="_ibo64p8Jv85Mo9t8Pvp-223" edge="1">
          <mxGeometry width="50" height="50" relative="1" as="geometry">
            <mxPoint x="1910" y="2121.5" as="sourcePoint" />
            <mxPoint x="1960" y="2071.5" as="targetPoint" />
          </mxGeometry>
        </mxCell>
        <mxCell id="_ibo64p8Jv85Mo9t8Pvp-232" value="" style="endArrow=classic;html=1;rounded=0;exitX=1;exitY=0.5;exitDx=0;exitDy=0;entryX=0;entryY=0.5;entryDx=0;entryDy=0;" parent="1" source="_ibo64p8Jv85Mo9t8Pvp-220" target="_ibo64p8Jv85Mo9t8Pvp-223" edge="1">
          <mxGeometry width="50" height="50" relative="1" as="geometry">
            <mxPoint x="1880" y="2141.5" as="sourcePoint" />
            <mxPoint x="1950" y="1951.5" as="targetPoint" />
          </mxGeometry>
        </mxCell>
        <mxCell id="_ibo64p8Jv85Mo9t8Pvp-233" value="&lt;font style=&quot;font-size: 20px;&quot;&gt;2&lt;/font&gt;" style="endArrow=classic;html=1;rounded=0;exitX=1;exitY=0.5;exitDx=0;exitDy=0;entryX=0;entryY=0.5;entryDx=0;entryDy=0;" parent="1" source="_ibo64p8Jv85Mo9t8Pvp-177" target="_ibo64p8Jv85Mo9t8Pvp-184" edge="1">
          <mxGeometry width="50" height="50" relative="1" as="geometry">
            <mxPoint x="1060" y="2378.25" as="sourcePoint" />
            <mxPoint x="1410" y="2439" as="targetPoint" />
          </mxGeometry>
        </mxCell>
        <mxCell id="_ibo64p8Jv85Mo9t8Pvp-234" value="&lt;font style=&quot;font-size: 20px;&quot;&gt;2&lt;/font&gt;" style="endArrow=classic;html=1;rounded=0;exitX=1;exitY=0.5;exitDx=0;exitDy=0;entryX=0;entryY=0.5;entryDx=0;entryDy=0;" parent="1" source="_ibo64p8Jv85Mo9t8Pvp-178" target="_ibo64p8Jv85Mo9t8Pvp-184" edge="1">
          <mxGeometry width="50" height="50" relative="1" as="geometry">
            <mxPoint x="50" y="2909.75" as="sourcePoint" />
            <mxPoint x="1410" y="2439" as="targetPoint" />
          </mxGeometry>
        </mxCell>
        <mxCell id="_ibo64p8Jv85Mo9t8Pvp-236" value="&lt;font style=&quot;font-size: 20px;&quot;&gt;2&lt;/font&gt;" style="endArrow=classic;html=1;rounded=0;exitX=1;exitY=0.5;exitDx=0;exitDy=0;entryX=0;entryY=0.5;entryDx=0;entryDy=0;" parent="1" source="_ibo64p8Jv85Mo9t8Pvp-179" target="_ibo64p8Jv85Mo9t8Pvp-184" edge="1">
          <mxGeometry width="50" height="50" relative="1" as="geometry">
            <mxPoint x="840" y="2989.75" as="sourcePoint" />
            <mxPoint x="1410" y="2439" as="targetPoint" />
          </mxGeometry>
        </mxCell>
        <mxCell id="_ibo64p8Jv85Mo9t8Pvp-238" value="&lt;font style=&quot;font-size: 20px;&quot;&gt;3&lt;/font&gt;" style="endArrow=classic;html=1;rounded=0;exitX=1;exitY=0.5;exitDx=0;exitDy=0;entryX=0;entryY=0.5;entryDx=0;entryDy=0;" parent="1" source="_ibo64p8Jv85Mo9t8Pvp-184" target="_ibo64p8Jv85Mo9t8Pvp-185" edge="1">
          <mxGeometry width="50" height="50" relative="1" as="geometry">
            <mxPoint x="1180" y="1650" as="sourcePoint" />
            <mxPoint x="1230" y="1600" as="targetPoint" />
          </mxGeometry>
        </mxCell>
        <mxCell id="_ibo64p8Jv85Mo9t8Pvp-239" value="&lt;font style=&quot;font-size: 20px;&quot;&gt;6. Action&lt;/font&gt;" style="endArrow=classic;html=1;rounded=0;exitX=0.5;exitY=1;exitDx=0;exitDy=0;" parent="1" source="_ibo64p8Jv85Mo9t8Pvp-189" edge="1">
          <mxGeometry width="50" height="50" relative="1" as="geometry">
            <mxPoint x="980" y="2150" as="sourcePoint" />
            <mxPoint x="1000" y="2080" as="targetPoint" />
            <Array as="points">
              <mxPoint x="2340" y="2160" />
              <mxPoint x="1000" y="2160" />
            </Array>
          </mxGeometry>
        </mxCell>
        <mxCell id="_ibo64p8Jv85Mo9t8Pvp-240" value="&lt;font style=&quot;font-size: 20px;&quot;&gt;8. Reward&lt;/font&gt;" style="endArrow=classic;html=1;rounded=0;entryX=0.5;entryY=0;entryDx=0;entryDy=0;" parent="1" target="_ibo64p8Jv85Mo9t8Pvp-187" edge="1">
          <mxGeometry width="50" height="50" relative="1" as="geometry">
            <mxPoint x="1000" y="1800" as="sourcePoint" />
            <mxPoint x="1010" y="1580" as="targetPoint" />
            <Array as="points">
              <mxPoint x="1000" y="1720" />
              <mxPoint x="1863" y="1720" />
            </Array>
          </mxGeometry>
        </mxCell>
        <mxCell id="801SNA5SVM6vxPM0RcMN-27" value="" style="html=1;verticalLabelPosition=bottom;align=center;labelBackgroundColor=#ffffff;verticalAlign=top;strokeWidth=2;strokeColor=#0080F0;shadow=0;dashed=0;shape=mxgraph.ios7.icons.cloud;fontSize=15;fontColor=#FF0000;" parent="1" vertex="1">
          <mxGeometry x="1320" y="1390" width="250" height="250" as="geometry" />
        </mxCell>
        <mxCell id="801SNA5SVM6vxPM0RcMN-46" value="&lt;font style=&quot;font-size: 20px;&quot;&gt;10&lt;/font&gt;" style="endArrow=classic;html=1;rounded=0;exitX=1;exitY=0.5;exitDx=0;exitDy=0;entryX=0;entryY=0.5;entryDx=0;entryDy=0;" parent="1" source="_ibo64p8Jv85Mo9t8Pvp-196" target="_ibo64p8Jv85Mo9t8Pvp-195" edge="1">
          <mxGeometry width="50" height="50" relative="1" as="geometry">
            <mxPoint x="3130" y="2420" as="sourcePoint" />
            <mxPoint x="3180" y="2370" as="targetPoint" />
          </mxGeometry>
        </mxCell>
        <mxCell id="801SNA5SVM6vxPM0RcMN-47" value="&lt;font style=&quot;font-size: 20px;&quot;&gt;10&lt;/font&gt;" style="endArrow=classic;html=1;rounded=0;exitX=1;exitY=0.5;exitDx=0;exitDy=0;entryX=0;entryY=0.5;entryDx=0;entryDy=0;" parent="1" source="_ibo64p8Jv85Mo9t8Pvp-197" target="_ibo64p8Jv85Mo9t8Pvp-195" edge="1">
          <mxGeometry width="50" height="50" relative="1" as="geometry">
            <mxPoint x="2950" y="2240" as="sourcePoint" />
            <mxPoint x="3000" y="2190" as="targetPoint" />
          </mxGeometry>
        </mxCell>
        <mxCell id="801SNA5SVM6vxPM0RcMN-48" value="&lt;font style=&quot;font-size: 20px;&quot;&gt;10&lt;/font&gt;" style="endArrow=classic;html=1;rounded=0;exitX=1;exitY=0.5;exitDx=0;exitDy=0;entryX=0;entryY=0.5;entryDx=0;entryDy=0;" parent="1" source="_ibo64p8Jv85Mo9t8Pvp-198" target="_ibo64p8Jv85Mo9t8Pvp-195" edge="1">
          <mxGeometry width="50" height="50" relative="1" as="geometry">
            <mxPoint x="2830" y="2180" as="sourcePoint" />
            <mxPoint x="2880" y="2130" as="targetPoint" />
          </mxGeometry>
        </mxCell>
        <mxCell id="801SNA5SVM6vxPM0RcMN-49" value="&lt;font style=&quot;font-size: 20px;&quot;&gt;&lt;b&gt;FOG&lt;/b&gt;&lt;/font&gt;" style="text;html=1;strokeColor=none;fillColor=none;align=center;verticalAlign=middle;whiteSpace=wrap;rounded=0;" parent="1" vertex="1">
          <mxGeometry x="1415" y="1520" width="60" height="30" as="geometry" />
        </mxCell>
        <mxCell id="801SNA5SVM6vxPM0RcMN-52" value="" style="ellipse;shape=cloud;whiteSpace=wrap;html=1;fontSize=15;fontColor=#FF0000;strokeColor=#0080f0;strokeWidth=2;" parent="1" vertex="1">
          <mxGeometry x="320" y="1400" width="250" height="250" as="geometry" />
        </mxCell>
        <mxCell id="801SNA5SVM6vxPM0RcMN-53" value="&lt;font style=&quot;font-size: 20px;&quot;&gt;&lt;b&gt;CLOUD&lt;/b&gt;&lt;/font&gt;" style="text;html=1;strokeColor=none;fillColor=none;align=center;verticalAlign=middle;whiteSpace=wrap;rounded=0;" parent="1" vertex="1">
          <mxGeometry x="415" y="1520" width="60" height="30" as="geometry" />
        </mxCell>
        <mxCell id="801SNA5SVM6vxPM0RcMN-56" value="&lt;font style=&quot;font-size: 20px;&quot;&gt;7. If slice 1 assigned to Fog&lt;/font&gt;" style="endArrow=classic;startArrow=classic;html=1;rounded=0;exitX=0.681;exitY=-0.002;exitDx=0;exitDy=0;exitPerimeter=0;entryX=0.04;entryY=0.52;entryDx=0;entryDy=0;entryPerimeter=0;" parent="1" source="_ibo64p8Jv85Mo9t8Pvp-184" edge="1" target="801SNA5SVM6vxPM0RcMN-27">
          <mxGeometry x="0.3498" width="50" height="50" relative="1" as="geometry">
            <mxPoint x="1120" y="1550" as="sourcePoint" />
            <mxPoint x="1320" y="1520" as="targetPoint" />
            <Array as="points">
              <mxPoint x="965" y="1520" />
            </Array>
            <mxPoint as="offset" />
          </mxGeometry>
        </mxCell>
        <mxCell id="801SNA5SVM6vxPM0RcMN-57" value="&lt;font style=&quot;font-size: 20px;&quot;&gt;7. If slice N assigned to Cloud&lt;/font&gt;" style="endArrow=classic;startArrow=classic;html=1;rounded=0;entryX=0.872;entryY=0.797;entryDx=0;entryDy=0;entryPerimeter=0;" parent="1" edge="1" target="801SNA5SVM6vxPM0RcMN-52">
          <mxGeometry x="0.3284" width="50" height="50" relative="1" as="geometry">
            <mxPoint x="879" y="1801" as="sourcePoint" />
            <mxPoint x="560" y="1600" as="targetPoint" />
            <Array as="points">
              <mxPoint x="879" y="1600" />
            </Array>
            <mxPoint as="offset" />
          </mxGeometry>
        </mxCell>
        <mxCell id="801SNA5SVM6vxPM0RcMN-59" value="&lt;font style=&quot;font-size: 20px;&quot;&gt;&lt;b&gt;SMART GATEWAY&lt;/b&gt;&lt;/font&gt;" style="text;html=1;strokeColor=none;fillColor=none;align=center;verticalAlign=middle;whiteSpace=wrap;rounded=0;" parent="1" vertex="1">
          <mxGeometry x="260" y="1700" width="220" height="30" as="geometry" />
        </mxCell>
        <mxCell id="801SNA5SVM6vxPM0RcMN-60" value="&lt;font style=&quot;font-size: 20px;&quot;&gt;7. If slice 2 assigned to Fog&lt;/font&gt;" style="endArrow=classic;startArrow=classic;html=1;rounded=0;spacing=2;" parent="1" edge="1">
          <mxGeometry x="0.3132" width="50" height="50" relative="1" as="geometry">
            <mxPoint x="978" y="1801" as="sourcePoint" />
            <mxPoint x="1320" y="1560" as="targetPoint" />
            <Array as="points">
              <mxPoint x="978" y="1560" />
            </Array>
            <mxPoint as="offset" />
          </mxGeometry>
        </mxCell>
        <mxCell id="801SNA5SVM6vxPM0RcMN-61" value="&lt;font style=&quot;font-size: 20px;&quot;&gt;7. If slice N assigned to Fog&lt;/font&gt;" style="endArrow=classic;startArrow=classic;html=1;rounded=0;entryX=0.005;entryY=0.839;entryDx=0;entryDy=0;entryPerimeter=0;" parent="1" edge="1" target="801SNA5SVM6vxPM0RcMN-27">
          <mxGeometry x="0.2613" width="50" height="50" relative="1" as="geometry">
            <mxPoint x="990" y="1801" as="sourcePoint" />
            <mxPoint x="1310" y="1600" as="targetPoint" />
            <Array as="points">
              <mxPoint x="990" y="1600" />
            </Array>
            <mxPoint as="offset" />
          </mxGeometry>
        </mxCell>
        <mxCell id="801SNA5SVM6vxPM0RcMN-62" value="&lt;font size=&quot;1&quot; style=&quot;&quot;&gt;&lt;b style=&quot;font-size: 30px;&quot;&gt;...&lt;/b&gt;&lt;/font&gt;" style="text;html=1;strokeColor=none;fillColor=none;align=center;verticalAlign=middle;whiteSpace=wrap;rounded=0;" parent="1" vertex="1">
          <mxGeometry x="1080" y="1560" width="60" height="30" as="geometry" />
        </mxCell>
        <mxCell id="801SNA5SVM6vxPM0RcMN-63" value="&lt;font style=&quot;font-size: 20px;&quot;&gt;7. If slice 2 assigned to Cloud&lt;/font&gt;" style="endArrow=classic;startArrow=classic;html=1;rounded=0;exitX=0.471;exitY=-0.001;exitDx=0;exitDy=0;exitPerimeter=0;" parent="1" edge="1" source="_ibo64p8Jv85Mo9t8Pvp-184">
          <mxGeometry x="0.4398" width="50" height="50" relative="1" as="geometry">
            <mxPoint x="880" y="1800" as="sourcePoint" />
            <mxPoint x="560" y="1560" as="targetPoint" />
            <Array as="points">
              <mxPoint x="890" y="1560" />
            </Array>
            <mxPoint as="offset" />
          </mxGeometry>
        </mxCell>
        <mxCell id="801SNA5SVM6vxPM0RcMN-64" value="&lt;font style=&quot;font-size: 20px;&quot;&gt;7. If slice 1 assigned to Cloud&lt;/font&gt;" style="endArrow=classic;startArrow=classic;html=1;rounded=0;exitX=0.5;exitY=0;exitDx=0;exitDy=0;entryX=0.889;entryY=0.483;entryDx=0;entryDy=0;entryPerimeter=0;" parent="1" target="801SNA5SVM6vxPM0RcMN-52" edge="1" source="_ibo64p8Jv85Mo9t8Pvp-184">
          <mxGeometry x="0.4439" width="50" height="50" relative="1" as="geometry">
            <mxPoint x="830" y="1802" as="sourcePoint" />
            <mxPoint x="560" y="1520" as="targetPoint" />
            <Array as="points">
              <mxPoint x="900" y="1520" />
            </Array>
            <mxPoint as="offset" />
          </mxGeometry>
        </mxCell>
        <mxCell id="801SNA5SVM6vxPM0RcMN-65" value="&lt;font size=&quot;1&quot; style=&quot;&quot;&gt;&lt;b style=&quot;font-size: 30px;&quot;&gt;...&lt;/b&gt;&lt;/font&gt;" style="text;html=1;strokeColor=none;fillColor=none;align=center;verticalAlign=middle;whiteSpace=wrap;rounded=0;" parent="1" vertex="1">
          <mxGeometry x="670" y="1560" width="60" height="30" as="geometry" />
        </mxCell>
      </root>
    </mxGraphModel>
  </diagram>
</mxfile>
